<?xml version="1.0" standalone="no"?>
<!DOCTYPE svg PUBLIC "-//W3C//DTD SVG 20010904//EN"
 "http://www.w3.org/TR/2001/REC-SVG-20010904/DTD/svg10.dtd">
<svg version="1.0" xmlns="http://www.w3.org/2000/svg"
 width="183.000000pt" height="183.000000pt" viewBox="0 0 183.000000 183.000000"
 preserveAspectRatio="xMidYMid meet">
<metadata>
Created by potrace 1.11, written by Peter Selinger 2001-2013
</metadata>
<g transform="translate(0.000000,183.000000) scale(0.100000,-0.100000)"
fill="#000000" stroke="none">
<path d="M0 915 l0 -915 915 0 915 0 0 915 0 915 -915 0 -915 0 0 -915z m1044
625 c14 -5 26 -16 26 -25 0 -8 11 -21 25 -27 22 -10 30 -8 55 10 16 12 33 22
39 22 15 0 18 -68 4 -92 -10 -19 -12 -20 -13 -5 0 20 -4 21 -30 5 -17 -11 -22
-10 -29 1 -12 19 -42 6 -35 -14 4 -10 14 -14 28 -10 11 2 15 2 9 -1 -16 -7 13
-55 30 -48 7 2 18 -5 24 -15 10 -16 10 -27 0 -56 l-13 -37 -14 26 c-15 29 -35
36 -26 9 3 -10 -3 -6 -15 10 -23 29 -49 36 -49 12 0 -9 -6 -18 -14 -21 -8 -3
-14 -11 -12 -17 1 -7 1 -8 -2 -4 -2 4 -11 2 -20 -5 -13 -12 -14 -10 -3 10 6
12 9 22 5 22 -4 0 2 10 14 23 20 22 21 24 6 46 -14 19 -14 25 -3 32 16 9 9 19
-18 24 -10 2 -19 4 -21 4 -1 1 7 20 19 42 22 44 16 58 -23 59 -10 0 -18 4 -18
9 0 5 -10 7 -22 4 -19 -4 -20 -3 -8 6 19 13 71 14 104 1z m-241 -20 c3 -11 13
-23 24 -26 31 -12 63 -47 63 -70 0 -13 5 -26 10 -29 19 -12 10 -23 -27 -30
-23 -4 -32 -9 -24 -14 9 -6 8 -10 -5 -15 -16 -6 -16 -8 -4 -16 11 -7 12 -10 2
-10 -7 0 -10 -5 -6 -12 4 -7 3 -8 -5 -4 -6 4 -9 11 -6 16 3 4 -4 10 -15 13
-11 3 -20 11 -20 18 0 10 3 10 12 1 15 -15 28 -15 28 -1 0 5 -3 8 -7 6 -5 -3
-14 1 -21 9 -7 8 -9 14 -5 14 4 0 0 5 -10 11 -14 8 -22 7 -33 -8 -14 -17 -14
-17 -12 2 2 11 5 22 8 25 3 3 14 18 23 33 18 27 18 29 -2 62 -20 35 -20 37 20
44 4 0 9 -8 12 -19z m-123 -59 c-1 -9 -19 -28 -41 -44 -22 -15 -43 -35 -46
-45 -15 -41 -43 -31 -43 16 0 12 -7 25 -15 28 -8 4 -15 13 -15 21 0 11 7 13
30 8 25 -6 30 -3 30 12 0 16 8 19 50 20 40 1 50 -3 50 -16z m675 -73 c34 -23
44 -41 26 -52 -12 -8 10 -56 26 -56 12 0 73 -113 73 -135 0 -16 35 -47 43 -38
4 3 7 -5 7 -19 0 -28 -13 -42 -46 -50 -15 -4 -21 -1 -20 11 0 9 -4 15 -11 14
-6 -1 -14 4 -17 12 -3 10 0 12 11 8 12 -5 13 -2 5 13 -5 10 -8 36 -5 57 3 31
1 37 -16 37 -11 0 -21 -5 -23 -11 -2 -6 -21 -13 -43 -15 -21 -2 -42 -9 -47
-16 -5 -9 -8 -7 -8 7 0 12 -6 27 -12 34 -7 8 -8 11 -2 8 6 -4 17 5 25 19 8 17
19 24 31 21 22 -6 23 3 2 29 -8 10 -13 14 -10 7 4 -6 -4 -15 -16 -19 -13 -4
-24 -5 -24 -3 -1 2 -11 -7 -23 -21 l-20 -25 -1 38 c0 39 8 45 28 25 10 -10 15
-10 22 2 7 11 4 20 -10 31 -10 9 -17 19 -14 22 3 3 -4 8 -15 12 -24 7 -28 25
-6 25 8 0 15 7 15 15 0 11 24 33 38 35 1 0 18 -10 37 -22z m-665 -23 c0 -8 6
-12 14 -9 8 3 17 1 21 -5 3 -6 -1 -11 -9 -11 -9 0 -16 -4 -16 -10 0 -5 -9 -10
-20 -10 -23 0 -42 -32 -33 -56 4 -12 3 -15 -5 -10 -17 11 -45 -21 -39 -44 3
-11 0 -20 -6 -20 -8 0 -7 -3 1 -9 20 -12 -7 -21 -35 -10 -15 6 -20 14 -16 28
3 12 9 18 14 15 11 -6 12 19 2 30 -4 4 -9 18 -10 31 -3 19 1 25 16 25 23 0 36
16 21 25 -6 4 -8 11 -4 16 3 5 9 7 13 4 5 -2 17 4 27 15 23 23 64 26 64 5z
m-257 -79 c12 -3 24 0 28 5 5 8 13 8 27 0 23 -12 20 -36 -6 -45 -9 -3 -22 -9
-29 -12 -6 -3 -13 3 -16 13 -3 15 -6 13 -15 -10 -16 -39 -34 -30 -37 18 -3 41
17 85 23 53 2 -9 13 -18 25 -22z m794 18 c-3 -3 -12 -4 -19 -1 -8 3 -5 6 6 6
11 1 17 -2 13 -5z m227 -30 c4 -10 1 -14 -6 -12 -15 5 -23 28 -10 28 5 0 13
-7 16 -16z m42 -19 c-5 -20 -3 -25 14 -25 24 0 25 -8 4 -39 l-17 -23 -12 29
c-14 32 -9 83 7 83 6 0 7 -11 4 -25z m-566 0 c0 -6 9 -16 20 -23 22 -13 26
-37 10 -47 -16 -10 -41 16 -35 36 7 22 -13 35 -28 19 -9 -10 -9 -14 0 -17 10
-3 10 -10 2 -25 -6 -11 -8 -22 -5 -26 3 -3 6 0 6 6 0 20 27 13 33 -8 3 -13 0
-20 -9 -20 -8 0 -14 -4 -14 -9 0 -4 11 -7 24 -6 19 3 24 -1 21 -16 -2 -10 -6
-23 -10 -28 -14 -23 18 -19 40 5 24 26 26 26 45 9 11 -10 20 -23 19 -29 0 -6
-3 -6 -6 1 -3 9 -10 10 -22 3 -10 -5 -22 -6 -26 -2 -4 4 -6 0 -5 -8 4 -27 0
-40 -11 -40 -7 0 -17 -7 -24 -17 -8 -11 -14 -13 -19 -5 -4 7 -2 12 4 12 6 0 8
5 5 10 -5 8 -12 7 -23 -2 -9 -7 -13 -8 -10 -3 7 13 -17 36 -28 27 -5 -4 -2 1
5 11 14 18 26 24 16 8 -7 -12 12 -24 25 -16 8 5 7 11 -1 21 -9 11 -9 14 0 14
7 0 9 5 6 10 -4 6 -11 8 -16 4 -5 -3 -9 -2 -8 3 4 26 -16 51 -44 57 -26 5 -29
9 -17 17 12 9 11 10 -7 6 -15 -3 -23 1 -27 16 -4 15 -2 17 7 8 16 -16 30 -14
23 5 -3 9 -2 12 5 8 6 -3 10 1 9 12 -1 11 -2 22 -1 25 2 10 71 4 71 -6z m310
-25 c-8 -6 -10 -10 -4 -10 7 0 14 -6 17 -14 4 -11 -2 -13 -25 -10 -17 2 -33 6
-37 10 -3 4 4 5 16 2 15 -4 20 -2 16 8 -3 8 -9 12 -13 9 -5 -3 -12 0 -16 6 -5
9 0 10 14 7 12 -4 25 -2 28 4 3 5 9 7 12 3 4 -3 0 -10 -8 -15z m-763 -22 c-3
-8 -6 -5 -6 6 -1 11 2 17 5 13 3 -3 4 -12 1 -19z m703 2 c0 -5 -2 -10 -4 -10
-3 0 -8 5 -11 10 -3 6 -1 10 4 10 6 0 11 -4 11 -10z m-750 -55 c-7 -8 -10 -22
-6 -30 6 -18 -5 -20 -21 -4 -9 9 -6 19 10 41 12 16 23 24 25 18 2 -6 -2 -17
-8 -25z m275 26 c3 -5 2 -12 -3 -15 -5 -3 -9 1 -9 9 0 17 3 19 12 6z m452 -16
c0 -17 -16 -22 -67 -23 -32 -1 -31 1 10 14 13 5 13 6 0 14 -11 7 -5 10 21 10
25 0 36 -4 36 -15z m-144 -15 c9 -11 13 -20 8 -20 -5 0 -14 7 -21 15 -7 8 -17
12 -23 8 -6 -3 -7 -1 -3 5 10 17 19 15 39 -8z m-633 -19 c-1 -14 -16 -28 -32
-28 -21 0 -21 2 -8 27 9 17 40 18 40 1z m604 -24 c-7 -18 -24 -23 -24 -7 0 6
4 10 10 10 5 0 7 8 3 18 -4 13 -3 14 6 6 6 -6 9 -18 5 -27z m182 8 c-6 -30 9
-34 17 -5 3 11 11 20 19 20 8 0 9 -3 3 -8 -16 -12 -16 -32 1 -32 9 0 12 5 8
11 -8 13 -1 11 43 -16 18 -11 33 -24 33 -29 0 -5 8 -15 17 -22 10 -7 14 -16 9
-21 -5 -4 -11 -2 -13 5 -3 6 -9 9 -14 6 -6 -4 -6 -10 0 -18 7 -8 3 -12 -15
-14 -14 -1 -34 -7 -45 -12 -16 -9 -19 -7 -19 9 0 11 5 23 10 26 6 3 10 11 10
18 0 6 -6 4 -12 -5 -7 -8 -22 -18 -32 -22 -20 -7 -20 -7 0 15 10 12 13 19 7
15 -16 -9 -17 6 -1 22 9 9 9 15 0 24 -9 9 -13 7 -18 -5 -7 -18 -39 -23 -49 -8
-3 5 0 13 6 17 8 4 9 3 5 -4 -4 -7 -1 -12 8 -12 9 0 14 8 13 20 -1 11 -7 20
-14 20 -14 0 -17 12 -6 23 16 17 33 6 29 -18z m-86 11 c0 -2 -7 -7 -16 -10 -8
-3 -12 -2 -9 4 6 10 25 14 25 6z m182 -28 c-7 -7 -12 -8 -12 -2 0 14 12 26 19
19 2 -3 -1 -11 -7 -17z m-362 -2 c0 -3 -4 -8 -10 -11 -5 -3 -10 -1 -10 4 0 6
5 11 10 11 6 0 10 -2 10 -4z m-234 -48 c8 -16 13 -35 10 -41 -2 -7 -5 -4 -5 7
-1 14 -4 16 -14 7 -10 -8 -17 -7 -27 2 -10 10 -11 8 -5 -8 9 -21 8 -92 -1
-107 -7 -12 -24 -10 -24 3 0 5 5 7 10 4 6 -3 10 1 10 9 0 9 -5 16 -12 16 -6 0
-3 9 7 20 10 11 14 20 9 21 -5 1 -18 2 -29 3 -28 2 -31 32 -3 40 13 4 18 10
11 12 -8 4 -8 10 3 23 22 26 43 22 60 -11z m418 16 c3 -8 2 -12 -4 -9 -6 3
-10 1 -10 -6 0 -7 -2 -10 -5 -7 -5 5 4 38 10 38 2 0 6 -7 9 -16z m312 -23 c13
-11 20 -21 14 -23 -6 -2 2 -16 16 -32 31 -32 21 -45 -30 -40 -17 1 -35 3 -41
4 -5 0 -3 5 5 10 8 5 10 10 4 10 -7 0 -15 7 -18 16 -3 8 -2 13 2 10 4 -3 13 4
20 14 7 12 8 21 2 25 -11 7 -14 25 -4 25 3 0 17 -9 30 -19z m-661 -28 c7 16
29 17 42 2 4 -4 3 -5 -3 -2 -7 4 -15 0 -18 -9 -3 -8 -10 -12 -16 -9 -5 3 -10
-1 -10 -9 0 -20 10 -20 24 -1 8 10 15 12 26 5 13 -8 12 -10 -2 -10 -17 0 -22
-9 -15 -27 1 -5 6 -7 10 -5 5 1 6 -2 2 -8 -3 -6 -11 -8 -16 -5 -5 3 -6 -1 -3
-10 4 -11 2 -14 -9 -9 -9 3 -13 13 -10 25 5 19 -7 26 -21 12 -12 -12 -45 -10
-50 3 -3 8 0 11 10 7 16 -6 44 13 44 30 0 6 -6 3 -12 -6 -10 -13 -17 -14 -28
-6 -13 9 -12 10 3 5 14 -4 16 -1 13 20 -5 25 -4 26 14 9 17 -16 20 -16 25 -2z
m355 -4 c0 -5 -4 -9 -10 -9 -5 0 -10 7 -10 16 0 8 5 12 10 9 6 -3 10 -10 10
-16z m-742 -34 c31 -29 39 -30 62 -10 16 15 17 13 16 -25 0 -22 -3 -40 -7 -40
-3 0 -6 -6 -7 -12 -6 -50 -16 -78 -28 -78 -8 0 -18 8 -21 18 -4 9 -17 25 -30
35 -13 10 -23 29 -23 43 0 15 -6 24 -15 24 -8 0 -15 7 -15 16 0 11 6 15 20 11
11 -3 23 -1 26 4 3 5 0 9 -5 9 -6 0 -11 7 -11 15 0 21 7 19 38 -10z m755 -15
c-15 -14 -56 -23 -49 -11 4 6 14 11 22 11 8 0 14 5 14 11 0 5 -5 7 -12 3 -7
-4 -8 -3 -4 5 6 9 11 9 22 0 8 -7 11 -15 7 -19z m67 6 c0 -2 -7 -6 -15 -10 -8
-3 -15 -1 -15 4 0 6 7 10 15 10 8 0 15 -2 15 -4z m374 -28 c10 -11 24 -17 30
-15 9 4 8 -5 -3 -29 -10 -23 -18 -30 -27 -24 -16 14 -28 -59 -12 -77 8 -10 8
-24 -1 -54 -7 -22 -9 -54 -6 -70 5 -21 2 -31 -9 -35 -9 -3 -16 -15 -16 -25 0
-10 -7 -19 -15 -19 -19 0 -20 26 -1 37 7 4 17 18 20 31 6 16 3 24 -11 29 -10
4 -27 15 -37 25 -11 10 -30 18 -43 18 -18 0 -23 6 -23 24 0 28 -50 52 -69 33
-6 -6 -11 -8 -11 -4 0 4 -9 3 -20 -3 -11 -6 -18 -15 -15 -21 4 -5 1 -9 -5 -9
-6 0 -9 -4 -6 -9 3 -5 -3 -11 -15 -14 -16 -4 -19 -2 -14 14 4 10 2 19 -3 19
-5 0 -9 7 -9 15 0 8 4 12 9 9 4 -3 8 1 8 9 0 9 -9 13 -24 12 -17 -2 -23 1 -19
10 2 8 12 11 21 8 15 -4 15 -3 2 6 -10 7 -11 11 -2 11 6 0 12 5 12 11 0 5 -4
7 -10 4 -20 -13 -9 24 12 39 25 18 49 9 25 -9 -27 -19 -20 -27 8 -9 23 15 25
15 25 0 0 -9 5 -15 12 -14 20 5 21 -33 1 -47 -16 -12 -13 -13 22 -8 22 3 42 9
43 14 6 15 32 10 32 -5 0 -8 4 -17 9 -20 16 -10 41 5 41 25 0 10 3 19 8 19 4
0 8 10 8 23 2 18 12 99 13 104 3 7 50 -14 65 -29z m-1044 7 c0 -7 -8 -19 -17
-24 -16 -9 -16 -12 -3 -20 18 -12 8 -24 -14 -15 -20 8 -21 33 -1 40 8 4 15 12
15 20 0 8 5 14 10 14 6 0 10 -7 10 -15z m740 -24 c0 -10 -50 -53 -50 -43 0 4
-5 -1 -11 -11 -8 -14 -14 -15 -30 -6 -16 8 -19 17 -14 40 5 23 3 29 -11 29 -9
0 -15 2 -12 5 13 13 58 -8 58 -26 0 -19 19 -27 21 -9 1 6 3 15 4 20 1 6 3 15
4 20 1 12 41 -6 41 -19z m-312 2 c-2 -11 2 -17 11 -15 12 3 12 0 2 -12 -14
-17 -7 -36 15 -36 8 0 14 -5 14 -11 0 -5 -4 -8 -9 -4 -6 3 -15 -3 -21 -12 -8
-13 -10 -14 -9 -3 3 31 -1 38 -21 33 -14 -4 -20 0 -20 12 0 14 3 15 15 5 23
-19 18 3 -6 29 l-22 23 22 -7 c12 -4 21 -2 21 4 0 6 2 11 5 11 3 0 5 -8 3 -17z
m-218 -3 c0 -5 -6 -10 -14 -10 -8 0 -16 -5 -18 -12 -3 -7 -7 -5 -11 6 -4 9 -3
15 2 11 5 -3 12 -1 16 5 8 13 25 13 25 0z m41 -27 c13 -17 13 -17 -6 -3 -11 8
-22 16 -24 17 -2 2 0 3 6 3 6 0 17 -8 24 -17z m-41 -3 c0 -5 -2 -10 -4 -10 -3
0 -8 5 -11 10 -3 6 -1 10 4 10 6 0 11 -4 11 -10z m-180 -22 c0 -6 -6 -5 -15 2
-8 7 -15 14 -15 16 0 2 7 1 15 -2 8 -4 15 -11 15 -16z m440 18 c0 -3 -4 -8
-10 -11 -5 -3 -10 -1 -10 4 0 6 5 11 10 11 6 0 10 -2 10 -4z m110 -11 c0 -8
-4 -15 -10 -15 -5 0 -7 7 -4 15 4 8 8 15 10 15 2 0 4 -7 4 -15z m43 -16 c1 3
11 0 22 -7 11 -6 15 -12 9 -12 -6 0 -14 3 -18 7 -12 13 -36 11 -36 -2 0 -8 -4
-16 -9 -20 -6 -3 -6 6 -1 24 4 16 7 31 7 33 -1 2 4 -4 11 -12 7 -8 14 -13 15
-11z m-619 -2 c23 -23 -20 -43 -51 -24 -18 11 -16 27 2 27 8 0 15 -4 15 -10 0
-5 7 -10 16 -10 14 0 14 3 4 15 -15 18 -4 20 14 2z m116 -27 c0 -18 -19 -11
-30 11 -11 19 -10 20 9 9 12 -6 21 -15 21 -20z m571 -4 c-12 -12 -19 -26 -16
-29 3 -4 1 -4 -5 1 -12 9 -1 54 11 46 5 -3 9 0 9 6 0 6 5 8 11 5 7 -5 3 -15
-10 -29z m-301 9 c0 -8 5 -15 10 -15 6 0 9 5 8 11 -2 6 3 14 10 16 11 4 12 1
3 -16 -7 -11 -18 -21 -26 -21 -7 0 -15 -7 -17 -15 -2 -9 -8 -11 -15 -7 -10 7
-10 14 0 35 13 29 27 35 27 12z m246 -7 c5 -7 3 -8 -6 -3 -10 6 -12 4 -7 -9 4
-10 3 -15 -3 -11 -13 8 -13 35 -1 35 6 0 13 -5 17 -12z m-322 -23 c3 -9 0 -15
-9 -15 -8 0 -15 7 -15 15 0 8 4 15 9 15 5 0 11 -7 15 -15z m110 -7 c-5 -8 -2
-9 9 -5 10 3 17 2 17 -3 0 -6 -10 -10 -22 -10 -18 0 -20 -2 -8 -9 8 -6 17 -8
21 -5 4 2 5 -6 1 -18 -5 -21 -6 -21 -13 -2 -4 10 -8 15 -8 9 -1 -5 -5 -3 -10
4 -9 14 2 51 15 51 3 0 2 -5 -2 -12z m-219 -28 c-3 -5 -14 -10 -23 -9 -14 0
-13 2 3 9 27 11 27 11 20 0z m-88 -35 c0 -8 -4 -12 -9 -9 -4 3 -8 0 -8 -5 0
-6 4 -11 9 -11 5 0 11 -9 14 -20 3 -11 1 -20 -4 -20 -5 0 -9 7 -9 16 0 10 -6
14 -14 11 -10 -4 -12 0 -8 16 4 17 18 35 28 37 0 0 1 -7 1 -15z m63 3 c0 -5
-9 -8 -19 -8 -12 0 -21 -8 -24 -22 -3 -18 -5 -17 -6 7 -1 26 3 30 24 30 14 0
25 -3 25 -7z m37 -3 c0 -8 -4 -12 -9 -9 -5 3 -6 10 -3 15 9 13 12 11 12 -6z
m36 -26 c-8 -8 -13 -7 -18 2 -5 8 -4 10 3 5 7 -4 12 -2 12 5 0 7 3 9 7 6 4 -4
2 -12 -4 -18z m362 11 c3 -5 2 -10 -4 -10 -5 0 -13 5 -16 10 -3 6 -2 10 4 10
5 0 13 -4 16 -10z m175 -44 c0 -26 -6 -18 -14 19 -5 22 -4 26 4 15 5 -8 10
-24 10 -34z m-222 18 c4 2 8 -9 8 -25 1 -21 -3 -29 -15 -28 -10 0 -11 2 -4 6
10 3 9 8 -2 19 -8 8 -11 22 -8 31 4 11 8 13 11 5 2 -7 7 -10 10 -8z m55 -11
c-3 -7 -9 -10 -14 -7 -5 3 -9 1 -9 -5 0 -17 36 -31 48 -19 8 8 15 8 25 0 8 -7
17 -9 21 -5 3 4 16 8 28 10 12 2 28 9 37 16 10 8 13 8 8 0 -10 -16 12 -22 46
-12 58 16 96 -48 43 -73 -14 -6 -26 -20 -28 -32 -2 -11 -9 -21 -17 -21 -8 0
-15 -12 -17 -28 l-3 -28 30 26 c17 14 35 23 40 19 15 -9 10 -40 -10 -58 -11
-10 -21 -28 -23 -40 -2 -14 -9 -20 -21 -18 -12 2 -21 -4 -24 -17 -6 -23 -29
-28 -36 -8 -4 10 -7 9 -18 -1 -18 -17 -44 -15 -59 3 -14 17 -3 37 22 41 29 5
68 24 68 34 0 5 -10 16 -23 25 -12 8 -35 34 -51 59 -20 32 -35 45 -57 48 -17
3 -32 1 -35 -4 -10 -16 -42 -9 -39 10 2 9 4 20 4 25 1 4 8 7 16 7 10 0 15 10
15 34 0 28 4 34 19 33 11 0 17 -6 14 -14z m-253 -3 c0 -5 -2 -10 -4 -10 -3 0
-8 5 -11 10 -3 6 -1 10 4 10 6 0 11 -4 11 -10z m150 -11 c0 -5 -4 -9 -8 -9 -5
0 -9 7 -9 15 0 8 4 12 9 9 4 -3 8 -9 8 -15z m-554 -14 c2 -32 -12 -32 -18 0
-3 15 -1 25 6 25 6 0 12 -11 12 -25z m104 -17 c0 -4 5 -7 11 -5 7 1 16 -13 21
-31 7 -27 12 -31 23 -22 17 14 35 5 35 -18 -1 -18 -23 -52 -34 -52 -4 0 -14
-6 -21 -12 -52 -47 -64 -48 -44 -4 7 15 18 25 26 22 29 -11 11 11 -22 27 -25
12 -35 23 -35 40 0 13 -3 27 -7 31 -11 10 -14 48 -4 42 5 -3 12 2 16 12 6 16
7 16 21 -2 8 -11 14 -23 14 -28z m167 20 c-3 -8 -6 -5 -6 6 -1 11 2 17 5 13 3
-3 4 -12 1 -19z m37 -3 c3 -8 1 -15 -4 -15 -6 0 -10 7 -10 15 0 8 2 15 4 15 2
0 6 -7 10 -15z m266 -20 c0 -1 -6 -7 -13 -13 -10 -8 -13 -6 -13 7 0 11 6 17
13 14 7 -3 13 -6 13 -8z m-556 -37 c5 -19 8 -21 16 -8 5 8 10 10 10 4 0 -14
-47 -47 -53 -36 -2 4 -7 19 -11 35 -5 22 -3 27 13 27 11 0 21 -9 25 -22z m476
18 c0 -2 -7 -7 -16 -10 -8 -3 -12 -2 -9 4 6 10 25 14 25 6z m27 -11 c0 -8 -4
-12 -9 -9 -4 3 -8 9 -8 15 0 5 4 9 8 9 5 0 9 -7 9 -15z m453 -25 c0 -5 -8 -10
-17 -10 -15 0 -16 2 -3 10 19 12 20 12 20 0z m-630 -38 c0 -12 -3 -13 -12 -4
-6 6 -13 19 -14 27 -2 13 1 14 12 4 8 -6 14 -19 14 -27z m-280 -17 c0 -8 -4
-15 -10 -15 -5 0 -10 7 -10 15 0 8 5 15 10 15 6 0 10 -7 10 -15z m406 -9 c-6
-23 -4 -24 23 -16 23 6 33 4 45 -9 9 -10 13 -21 9 -24 -3 -4 -2 -7 3 -7 5 0
16 9 24 19 7 11 18 18 22 15 5 -3 15 0 23 6 11 10 15 7 21 -14 3 -15 1 -32 -5
-40 -7 -8 -9 -25 -6 -39 6 -22 4 -25 -14 -20 -28 7 -27 -11 2 -30 l22 -15 -37
-16 c-21 -9 -38 -23 -38 -31 0 -8 -6 -15 -14 -15 -17 0 -28 24 -17 36 18 19
21 62 6 68 -8 3 -15 0 -15 -6 0 -15 -11 -4 -14 14 -1 7 -5 19 -9 26 -5 7 -3
12 3 12 6 0 -1 11 -16 25 -23 22 -57 31 -88 26 -5 -1 -6 5 -2 14 3 9 6 21 6
27 0 6 10 8 25 4 14 -4 25 -2 25 4 0 5 5 10 11 10 7 0 9 -10 5 -24z m-266 -32
c0 -2 -9 -4 -20 -4 -11 0 -20 4 -20 9 0 5 9 7 20 4 11 -3 20 -7 20 -9z m77 -6
c-1 -14 4 -23 12 -23 8 0 16 -6 19 -12 5 -16 -14 -17 -23 -2 -4 6 -13 8 -21 5
-8 -3 -11 0 -8 10 2 7 6 21 9 29 7 23 15 18 12 -7z m-32 -9 c-4 -5 -14 -8 -23
-8 -15 1 -15 2 1 6 9 2 14 9 11 15 -4 7 -2 8 5 4 6 -4 9 -12 6 -17z m89 10
c-4 -7 -44 0 -44 7 0 2 11 3 24 2 14 -1 23 -5 20 -9z m-294 -23 c0 -3 -4 -8
-10 -11 -5 -3 -10 -1 -10 4 0 6 5 11 10 11 6 0 10 -2 10 -4z m49 -15 c12 -8
12 -12 2 -25 -19 -23 -31 -20 -31 9 0 27 6 30 29 16z m256 -12 c4 -6 13 -8 20
-5 7 2 21 -1 31 -9 17 -12 17 -15 -10 -49 -22 -29 -31 -34 -45 -27 -11 6 -22
6 -27 1 -11 -11 -62 1 -66 15 -2 6 7 14 20 20 12 5 22 18 22 27 0 10 7 18 15
18 8 0 15 5 15 10 0 13 17 13 25 -1z m-115 -59 c0 -5 -4 -10 -9 -10 -6 0 -13
5 -16 10 -3 6 1 10 9 10 9 0 16 -4 16 -10z m260 -71 c0 -12 -48 -34 -56 -26
-3 3 -3 14 0 25 5 14 13 18 31 14 14 -2 25 -8 25 -13z"/>
<path d="M1115 1320 c-3 -5 -1 -10 4 -10 6 0 11 5 11 10 0 6 -2 10 -4 10 -3 0
-8 -4 -11 -10z"/>
<path d="M1147 1323 c-7 -11 10 -40 18 -31 4 4 3 14 -3 24 -5 9 -12 12 -15 7z"/>
<path d="M1025 1300 c-3 -5 -1 -10 4 -10 6 0 11 5 11 10 0 6 -2 10 -4 10 -3 0
-8 -4 -11 -10z"/>
<path d="M817 1405 c-8 -8 -18 -11 -23 -7 -5 4 -2 -1 5 -10 17 -23 33 -23 29
-2 -2 10 5 18 15 20 27 4 34 14 9 14 -11 0 -27 -7 -35 -15z"/>
<path d="M600 1300 c-9 -16 -8 -20 5 -20 8 0 15 9 15 20 0 11 -2 20 -5 20 -2
0 -9 -9 -15 -20z"/>
<path d="M920 1126 c0 -2 7 -7 16 -10 8 -3 12 -2 9 4 -6 10 -25 14 -25 6z"/>
<path d="M1006 1093 c-6 -14 -5 -15 5 -6 7 7 10 15 7 18 -3 3 -9 -2 -12 -12z"/>
<path d="M962 1061 c4 -13 18 -16 19 -4 0 4 -5 9 -11 12 -7 2 -11 -2 -8 -8z"/>
<path d="M1226 584 c-6 -15 2 -24 21 -24 7 0 13 8 13 18 0 21 -27 26 -34 6z"/>
<path d="M1290 566 c0 -9 5 -16 10 -16 6 0 10 4 10 9 0 6 -4 13 -10 16 -5 3
-10 -1 -10 -9z"/>
<path d="M635 550 c6 -10 4 -12 -11 -6 -15 6 -17 5 -6 -5 9 -9 15 -10 23 -2 8
8 7 13 -2 18 -8 6 -10 4 -4 -5z"/>
<path d="M986 471 c-4 -7 -5 -15 -2 -18 9 -9 19 4 14 18 -4 11 -6 11 -12 0z"/>
<path d="M795 408 c-10 -26 1 -49 20 -41 9 3 12 9 7 12 -5 3 -12 15 -14 26 -4
18 -6 18 -13 3z"/>
</g>
</svg>
